<?xml version="1.0" encoding="iso-8859-1"?>
<!-- Uploaded to: SVG Repo, www.svgrepo.com, Generator: SVG Repo Mixer Tools -->
<svg fill="#000000" height="800px" width="800px" version="1.1" id="Layer_1" xmlns="http://www.w3.org/2000/svg" xmlns:xlink="http://www.w3.org/1999/xlink" 
	 viewBox="0 0 512 512" xml:space="preserve">
<g transform="translate(1 1)">
	<g>
		<g>
			<path d="M365.827,143.213c-9.387-9.387-26.453-9.387-35.84,0l-35.84,35.84c-5.12,4.267-7.68,11.093-7.68,17.92
				s2.56,12.8,7.68,17.92l60.587,60.587c5.12,5.12,11.093,7.68,17.92,7.68c5.973,0,12.8-2.56,17.92-7.68l35.84-35.84
				c5.12-4.267,7.68-11.093,7.68-17.92s-2.56-12.8-7.68-17.92L365.827,143.213z M414.467,228.547l-35.84,35.84
				c-3.413,3.413-8.533,3.413-11.947,0L306.093,203.8c-1.707-1.707-2.56-3.413-2.56-5.973s0.853-4.267,2.56-5.973l35.84-36.693
				c1.707-1.707,3.413-2.56,5.973-2.56s5.12,0.853,5.973,3.413l60.587,60.587c1.707,1.707,2.56,3.413,2.56,5.973
				S416.173,226.84,414.467,228.547z"/>
			<path d="M348.76,185.88c-3.413-3.413-8.533-3.413-11.947,0s-3.413,8.533,0,11.947l35.84,35.84c1.707,1.707,3.413,2.56,5.973,2.56
				c1.707,0,4.267-0.853,5.973-2.56c3.413-3.413,3.413-8.533,0-11.947L348.76,185.88z"/>
			<path d="M451.16,179.053l-115.2-115.2c-10.951-10.951-25.372-16.686-39.965-17.227C283.074,19.339,257.834-1,220.76-1
				c-34.831,0-59.213,17.954-72.752,42.755c-1.344-0.053-2.692-0.088-4.048-0.088c-56.32,0-102.4,46.08-102.4,102.4
				c0,37.702,20.652,70.812,51.2,88.585v82.082c0,2.56,0.853,4.267,2.56,5.973l11.093,11.093L95.32,342.893
				c-3.413,3.413-3.413,8.533,0,11.947l11.093,11.093L95.32,377.027c-3.413,3.413-3.413,8.533,0,11.947l11.093,11.093L95.32,411.16
				c-1.707,1.707-2.56,3.413-2.56,5.973s0.853,4.267,2.56,5.973l11.093,11.093L95.32,445.293c-3.413,3.413-3.413,8.533,0,11.947
				l11.093,11.093L95.32,479.427c-3.413,3.413-3.413,8.533,0,11.947l17.067,17.067c1.707,1.707,3.413,2.56,5.973,2.56h31.573
				c0.853,0,1.707,0,2.56,0c0.165,0,0.333-0.008,0.504-0.021c4.131-0.187,7.08-2.656,8.366-6.457l32.09-48.135
				c0.853-1.707,1.707-3.413,1.707-5.12V232.651c13.9-8.087,25.748-19.351,34.536-32.778L330.84,300.227
				c11.093,11.093,26.453,17.067,41.813,17.067s30.72-5.12,42.667-17.92l35.84-35.84C474.2,240.493,474.2,202.093,451.16,179.053z
				 M314.627,109.933c0,9.387-7.68,17.067-17.067,17.067s-17.067-7.68-17.067-17.067c0-6.378,3.55-11.96,8.767-14.888
				c0.838,3.884,3.948,6.355,8.3,6.355s7.461-2.471,8.3-6.355C311.077,97.974,314.627,103.556,314.627,109.933z M220.76,16.067
				c27.537,0,46.257,13.809,57.03,32.632c-9.689,2.618-18.814,7.659-26.31,15.155l-22.831,22.831
				c-14.393-21.133-36.468-36.662-62.121-42.49C177.619,27.714,195.471,16.067,220.76,16.067z M135.66,95.045
				c0.838,3.884,3.948,6.355,8.3,6.355s7.461-2.471,8.3-6.355c5.217,2.928,8.767,8.511,8.767,14.888
				c0,9.387-7.68,17.067-17.067,17.067s-17.067-7.68-17.067-17.067C126.893,103.556,130.443,97.974,135.66,95.045z M113.24,485.4
				l11.093-11.093c3.413-3.413,3.413-8.533,0-11.947l-11.093-11.093l11.093-11.093c1.707-1.707,2.56-3.413,2.56-5.973
				s-0.853-4.267-2.56-5.973l-11.093-11.093l11.093-11.093c3.413-3.413,3.413-8.533,0-11.947L113.24,383l11.093-11.093
				c3.413-3.413,3.413-8.533,0-11.947l-11.093-11.093l11.093-11.093c1.707-1.707,2.56-3.413,2.56-5.973
				c0-2.56-0.853-4.267-2.56-5.973l-14.507-14.507v-70.746c1.261,0.45,2.531,0.881,3.814,1.282c9.832,3.268,19.741,4.61,30.319,4.61
				v247.467h-22.187L113.24,485.4z M178.093,448.707l-16.213,24.32V244.884c5.571-0.994,10.987-2.447,16.213-4.31V448.707z
				 M184.253,219.213c-0.662,0.153-1.301,0.405-1.893,0.8c-1.759,0.96-3.549,1.859-5.368,2.694
				c-10.173,4.307-21.337,6.693-33.032,6.693c-2.591,0-5.151-0.136-7.685-0.365c-10.658-1.08-21.065-3.912-30.715-9.021
				c-0.71-0.474-1.489-0.802-2.294-1.013c-26.536-14.512-44.639-42.711-44.639-74.934c0-45.843,36.642-83.524,82.082-85.25
				c-1.861,5.769-3.231,11.736-4.109,17.797c-15.265,3.39-26.773,17.072-26.773,33.32c0,18.773,15.36,34.133,34.133,34.133
				s34.133-15.36,34.133-34.133c0-15.363-10.289-28.434-24.314-32.678c0.976-5.884,2.516-11.697,4.632-17.264
				c40.007,6.902,70.715,41.888,70.873,83.751c-0.004,0.558-0.011,1.114-0.026,1.669c-0.003,0.172-0.009,0.343-0.013,0.515
				c-0.42,12.639-3.763,24.535-9.339,35.687c-0.444,0.888-0.711,1.834-0.823,2.792C211.126,199.12,198.973,211.265,184.253,219.213z
				 M438.36,252.44l-35.84,35.84c-17.067,16.213-44.373,16.213-60.587,0L238.036,184.382c2.415-5.592,4.347-11.436,5.738-17.482
				c0.029-0.123,0.053-0.248,0.081-0.371c0.15-0.665,0.298-1.331,0.436-2.001c0.094-0.456,0.178-0.914,0.265-1.372
				c0.077-0.406,0.157-0.81,0.23-1.217c0.048-0.27,0.09-0.541,0.135-0.812c0.941-5.553,1.439-11.251,1.439-17.061
				c0-0.133-0.005-0.265-0.005-0.398c0.001-0.152,0.005-0.303,0.005-0.456c0-14.507-2.56-28.16-8.533-40.96l25.6-25.6
				c6.177-5.868,13.698-9.601,21.547-11.221c1.184,3.872,2.105,7.832,2.767,11.823c-14.025,4.244-24.314,17.315-24.314,32.678
				c0,18.773,15.36,34.133,34.133,34.133c18.773,0,34.133-15.36,34.133-34.133c0-16.247-11.508-29.93-26.773-33.32
				c-0.55-3.799-1.294-7.56-2.231-11.26c7.9,1.578,15.363,5.339,21.324,11.3L438.36,192.707c8.533,7.68,12.8,18.773,12.8,29.867
				S446.04,244.76,438.36,252.44z"/>
		</g>
	</g>
</g>
</svg>