<?xml version="1.0" encoding="iso-8859-1"?>
<!-- Uploaded to: SVG Repo, www.svgrepo.com, Generator: SVG Repo Mixer Tools -->
<!DOCTYPE svg PUBLIC "-//W3C//DTD SVG 1.1//EN" "http://www.w3.org/Graphics/SVG/1.1/DTD/svg11.dtd">
<svg fill="#000000" height="800px" width="800px" version="1.1" id="Capa_1" xmlns="http://www.w3.org/2000/svg" xmlns:xlink="http://www.w3.org/1999/xlink" 
	 viewBox="0 0 342.418 342.418" xml:space="preserve">
<g>
	<g>
		<g>
			<g>
				<g>
					<g>
						<path d="M93.17,56.807H30.971c-4.143,0-7.5-3.357-7.5-7.5c0-4.143,3.357-7.5,7.5-7.5H93.17c4.143,0,7.5,3.357,7.5,7.5
							C100.67,53.449,97.313,56.807,93.17,56.807z"/>
					</g>
					<g>
						<path d="M93.17,82.918H30.971c-4.143,0-7.5-3.357-7.5-7.5c0-4.143,3.357-7.5,7.5-7.5H93.17c4.143,0,7.5,3.357,7.5,7.5
							C100.67,79.561,97.313,82.918,93.17,82.918z"/>
					</g>
					<g>
						<path d="M93.17,109.029H30.971c-4.143,0-7.5-3.357-7.5-7.5c0-4.143,3.357-7.5,7.5-7.5H93.17c4.143,0,7.5,3.357,7.5,7.5
							C100.67,105.672,97.313,109.029,93.17,109.029z"/>
					</g>
				</g>
				<g>
					<g>
						<path d="M93.17,248.389H30.971c-4.143,0-7.5-3.357-7.5-7.5c0-4.143,3.357-7.5,7.5-7.5H93.17c4.143,0,7.5,3.357,7.5,7.5
							C100.67,245.031,97.313,248.389,93.17,248.389z"/>
					</g>
					<g>
						<path d="M93.17,274.502H30.971c-4.143,0-7.5-3.357-7.5-7.5c0-4.143,3.357-7.5,7.5-7.5H93.17c4.143,0,7.5,3.357,7.5,7.5
							C100.67,271.145,97.313,274.502,93.17,274.502z"/>
					</g>
					<g>
						<path d="M93.17,300.613H30.971c-4.143,0-7.5-3.357-7.5-7.5c0-4.143,3.357-7.5,7.5-7.5H93.17c4.143,0,7.5,3.357,7.5,7.5
							C100.67,297.256,97.313,300.613,93.17,300.613z"/>
					</g>
				</g>
			</g>
			<g>
				<path d="M30.969,186.389c-1.98,0-3.91-0.8-5.301-2.199c-1.398-1.4-2.199-3.33-2.199-5.301c0-1.98,0.801-3.909,2.199-5.31
					c1.4-1.39,3.33-2.19,5.301-2.19s3.91,0.801,5.301,2.19c1.398,1.4,2.199,3.33,2.199,5.31c0,1.971-0.801,3.91-2.199,5.301
					C34.879,185.589,32.949,186.389,30.969,186.389z"/>
			</g>
		</g>
		<g>
			<g>
				<g>
					<g>
						<path d="M202.309,56.807h-62.199c-4.143,0-7.5-3.357-7.5-7.5c0-4.143,3.357-7.5,7.5-7.5h62.199c4.143,0,7.5,3.357,7.5,7.5
							C209.809,53.449,206.451,56.807,202.309,56.807z"/>
					</g>
					<g>
						<path d="M202.309,82.918h-62.199c-4.143,0-7.5-3.357-7.5-7.5c0-4.143,3.357-7.5,7.5-7.5h62.199c4.143,0,7.5,3.357,7.5,7.5
							C209.809,79.561,206.451,82.918,202.309,82.918z"/>
					</g>
					<g>
						<path d="M202.309,109.029h-62.199c-4.143,0-7.5-3.357-7.5-7.5c0-4.143,3.357-7.5,7.5-7.5h62.199c4.143,0,7.5,3.357,7.5,7.5
							C209.809,105.672,206.451,109.029,202.309,109.029z"/>
					</g>
				</g>
				<g>
					<g>
						<path d="M202.309,248.389h-62.199c-4.143,0-7.5-3.357-7.5-7.5c0-4.143,3.357-7.5,7.5-7.5h62.199c4.143,0,7.5,3.357,7.5,7.5
							C209.809,245.031,206.451,248.389,202.309,248.389z"/>
					</g>
					<g>
						<path d="M202.309,274.502h-62.199c-4.143,0-7.5-3.357-7.5-7.5c0-4.143,3.357-7.5,7.5-7.5h62.199c4.143,0,7.5,3.357,7.5,7.5
							C209.809,271.145,206.451,274.502,202.309,274.502z"/>
					</g>
					<g>
						<path d="M202.309,300.613h-62.199c-4.143,0-7.5-3.357-7.5-7.5c0-4.143,3.357-7.5,7.5-7.5h62.199c4.143,0,7.5,3.357,7.5,7.5
							C209.809,297.256,206.451,300.613,202.309,300.613z"/>
					</g>
				</g>
			</g>
			<g>
				<path d="M140.109,186.389c-1.98,0-3.91-0.8-5.301-2.199c-1.4-1.4-2.199-3.33-2.199-5.301c0-1.98,0.799-3.909,2.199-5.31
					c1.391-1.39,3.33-2.19,5.301-2.19c1.969,0,3.91,0.801,5.299,2.19c1.4,1.4,2.201,3.33,2.201,5.31c0,1.971-0.801,3.91-2.201,5.301
					C144.02,185.589,142.088,186.389,140.109,186.389z"/>
			</g>
		</g>
		<g>
			<path d="M334.918,15.842H7.5c-4.143,0-7.5,3.357-7.5,7.5v295.734c0,4.143,3.357,7.5,7.5,7.5h327.418c4.143,0,7.5-3.357,7.5-7.5
				V23.342C342.418,19.199,339.061,15.842,334.918,15.842z M109.139,311.576H15V30.842h94.139V311.576z M124.139,30.842h94.141
				v280.734h-94.141V30.842z M327.418,311.576h-94.139V30.842h94.139V311.576z"/>
			<g>
				<g>
					<g>
						<g>
							<path d="M311.449,56.807H249.25c-4.143,0-7.5-3.357-7.5-7.5c0-4.143,3.357-7.5,7.5-7.5h62.199c4.143,0,7.5,3.357,7.5,7.5
								C318.949,53.449,315.592,56.807,311.449,56.807z"/>
						</g>
						<g>
							<path d="M311.449,82.918H249.25c-4.143,0-7.5-3.357-7.5-7.5c0-4.143,3.357-7.5,7.5-7.5h62.199c4.143,0,7.5,3.357,7.5,7.5
								C318.949,79.561,315.592,82.918,311.449,82.918z"/>
						</g>
						<g>
							<path d="M311.449,109.029H249.25c-4.143,0-7.5-3.357-7.5-7.5c0-4.143,3.357-7.5,7.5-7.5h62.199c4.143,0,7.5,3.357,7.5,7.5
								C318.949,105.672,315.592,109.029,311.449,109.029z"/>
						</g>
					</g>
					<g>
						<g>
							<path d="M311.449,248.389H249.25c-4.143,0-7.5-3.357-7.5-7.5c0-4.143,3.357-7.5,7.5-7.5h62.199c4.143,0,7.5,3.357,7.5,7.5
								C318.949,245.031,315.592,248.389,311.449,248.389z"/>
						</g>
						<g>
							<path d="M311.449,274.502H249.25c-4.143,0-7.5-3.357-7.5-7.5c0-4.143,3.357-7.5,7.5-7.5h62.199c4.143,0,7.5,3.357,7.5,7.5
								C318.949,271.145,315.592,274.502,311.449,274.502z"/>
						</g>
						<g>
							<path d="M311.449,300.613H249.25c-4.143,0-7.5-3.357-7.5-7.5c0-4.143,3.357-7.5,7.5-7.5h62.199c4.143,0,7.5,3.357,7.5,7.5
								C318.949,297.256,315.592,300.613,311.449,300.613z"/>
						</g>
					</g>
				</g>
				<g>
					<path d="M249.248,186.389c-1.979,0-3.91-0.8-5.299-2.199c-1.4-1.4-2.201-3.33-2.201-5.301c0-1.98,0.801-3.909,2.201-5.31
						c1.389-1.39,3.33-2.19,5.299-2.19c1.971,0,3.91,0.801,5.301,2.19c1.4,1.4,2.199,3.33,2.199,5.31
						c0,1.971-0.799,3.91-2.199,5.301C253.158,185.589,251.229,186.389,249.248,186.389z"/>
				</g>
			</g>
		</g>
	</g>
</g>
</svg>