<?xml version="1.0" encoding="iso-8859-1"?>
<!-- Uploaded to: SVG Repo, www.svgrepo.com, Generator: SVG Repo Mixer Tools -->
<!DOCTYPE svg PUBLIC "-//W3C//DTD SVG 1.1//EN" "http://www.w3.org/Graphics/SVG/1.1/DTD/svg11.dtd">
<svg fill="#000000" height="800px" width="800px" version="1.1" id="Capa_1" xmlns="http://www.w3.org/2000/svg" xmlns:xlink="http://www.w3.org/1999/xlink" 
	 viewBox="0 0 297 297" xml:space="preserve">
<path d="M261.938,187.781c-4.621-52.804-45.427-95.386-97.413-102.74c6.412-4.859,10.564-12.553,10.564-21.201
	c0-14.662-11.928-26.59-26.59-26.59s-26.59,11.928-26.59,26.59c0,8.648,4.151,16.341,10.564,21.201
	c-51.985,7.354-92.792,49.937-97.413,102.74C15.645,188.28,0,204.219,0,223.753c0,19.848,16.148,35.996,35.996,35.996h225.008
	c19.848,0,35.996-16.148,35.996-35.996C297,204.219,281.355,188.28,261.938,187.781z M148.5,57.318c3.596,0,6.522,2.926,6.522,6.522
	s-2.926,6.522-6.522,6.522s-6.522-2.926-6.522-6.522S144.904,57.318,148.5,57.318z M148.5,103.975
	c48.34,0,88.255,36.753,93.278,83.782H55.222C60.245,140.728,100.16,103.975,148.5,103.975z M261.004,239.682H35.996
	c-8.783,0-15.929-7.145-15.929-15.929c0-8.783,7.145-15.929,15.929-15.929h225.008c8.783,0,15.929,7.145,15.929,15.929
	C276.932,232.537,269.787,239.682,261.004,239.682z"/>
</svg>