<?xml version="1.0" encoding="iso-8859-1"?>
<!-- Uploaded to: SVG Repo, www.svgrepo.com, Generator: SVG Repo Mixer Tools -->
<svg fill="#000000" height="800px" width="800px" version="1.1" id="Layer_1" xmlns="http://www.w3.org/2000/svg" xmlns:xlink="http://www.w3.org/1999/xlink" 
	 viewBox="0 0 512 512" xml:space="preserve">
<g>
	<g>
		<path d="M435.332,357.648c-42.277,0-76.668,34.391-76.668,76.668s34.391,76.668,76.668,76.668
			c42.277,0,76.668-34.391,76.668-76.668S477.609,357.648,435.332,357.648z M435.332,493.946c-32.877,0-59.63-26.754-59.63-59.63
			c0-32.877,26.754-59.63,59.63-59.63c32.877,0,59.63,26.754,59.63,59.63C494.963,467.192,468.209,493.946,435.332,493.946z"/>
	</g>
</g>
<g>
	<g>
		<path d="M447.378,434.315l18.069-18.069c3.328-3.328,3.328-8.718,0-12.046c-3.328-3.328-8.718-3.328-12.046,0l-18.069,18.069
			l-18.069-18.069c-3.328-3.328-8.718-3.328-12.046,0s-3.328,8.718,0,12.046l18.069,18.069l-18.069,18.069
			c-3.328,3.328-3.328,8.718,0,12.046c1.664,1.664,3.843,2.496,6.023,2.496c2.18,0,4.359-0.832,6.023-2.496l18.069-18.067
			l18.069,18.067c1.664,1.664,3.843,2.496,6.023,2.496c2.18,0,4.359-0.832,6.023-2.496c3.328-3.328,3.328-8.718,0-12.046
			L447.378,434.315z"/>
	</g>
</g>
<g>
	<g>
		<path d="M503.481,0.441H9.401C4.692,0.441,0,3.675,0,8.383v119.261v374.82c0,4.708,4.692,9.095,9.401,9.095h340.745
			c4.708,0,8.519-3.81,8.519-8.519c0-4.708-3.81-8.519-8.519-8.519H17.037V136.739h477.044v220.908c0,4.708,3.81,8.519,8.519,8.519
			c4.708,0,8.519-3.81,8.519-8.519V127.644V8.383C511.118,3.675,508.19,0.441,503.481,0.441z M494.081,119.702H17.037V17.478
			h477.044V119.702z"/>
	</g>
</g>
<g>
	<g>
		<path d="M443.851,307.112H374.82v-59.63h69.031c4.708,0,8.519-3.81,8.519-8.519c0-4.708-3.81-8.519-8.519-8.519H374.82v-68.725
			c0-4.708-3.81-8.519-8.519-8.519s-8.519,3.81-8.519,8.519v68.725h-59.63v-68.725c0-4.708-3.81-8.519-8.519-8.519
			s-8.519,3.81-8.519,8.519v68.725h-59.63v-68.725c0-4.708-3.81-8.519-8.519-8.519c-4.708,0-8.519,3.81-8.519,8.519v68.725h-59.63
			v-68.725c0-4.708-3.81-8.519-8.519-8.519c-4.708,0-8.519,3.81-8.519,8.519v68.725H60.512c-4.709,0-8.519,3.81-8.519,8.519
			c0,4.708,3.81,8.519,8.519,8.519h67.267v59.63H60.512c-4.709,0-8.519,3.81-8.519,8.519c0,4.708,3.81,8.519,8.519,8.519h67.267
			v59.63H60.512c-4.709,0-8.519,3.81-8.519,8.519c0,4.708,3.81,8.519,8.519,8.519h67.267v67.689c0,4.708,3.81,8.519,8.519,8.519
			c4.708,0,8.519-3.81,8.519-8.519v-67.689h59.63v67.689c0,4.708,3.81,8.519,8.519,8.519c4.708,0,8.519-3.81,8.519-8.519v-67.689
			h59.63v67.689c0,4.708,3.81,8.519,8.519,8.519s8.519-3.81,8.519-8.519V324.149h145.699c4.708,0,8.519-3.81,8.519-8.519
			C452.37,310.922,448.559,307.112,443.851,307.112z M204.447,383.78h-59.63v-59.63h59.63V383.78z M204.447,307.112h-59.63v-59.63
			h59.63V307.112z M281.115,383.78h-59.63v-59.63h59.63V383.78z M281.115,307.112h-59.63v-59.63h59.63V307.112z M357.783,307.112
			h-59.63v-59.63h59.63V307.112z"/>
	</g>
</g>
</svg>