<?xml version="1.0" encoding="iso-8859-1"?>
<!-- Uploaded to: SVG Repo, www.svgrepo.com, Generator: SVG Repo Mixer Tools -->
<svg fill="#000000" height="800px" width="800px" version="1.1" id="Layer_1" xmlns="http://www.w3.org/2000/svg" xmlns:xlink="http://www.w3.org/1999/xlink" 
	 viewBox="0 0 511.999 511.999" xml:space="preserve">
<g>
	<g>
		<path d="M348.141,211.464c10.113-16.444,15.955-35.783,15.955-56.462v-44.985V79.599V30.417h58.464V0h-58.464H147.904H89.439
			v30.417h17.829v102.899h30.417V30.417h10.218v49.182v30.417v44.985c0,20.68,5.841,40.019,15.955,56.462
			c-60.037,3.411-107.834,53.325-107.834,114.199v186.336h399.952V325.663C455.976,264.789,408.178,214.874,348.141,211.464z
			 M271.208,262.022c10.757-1.521,21.008-4.63,30.511-9.085c0.198-0.092,0.396-0.185,0.594-0.278
			c1.04-0.495,2.071-1.004,3.092-1.531c0.502-0.258,0.999-0.525,1.497-0.791c0.438-0.234,0.874-0.473,1.308-0.714
			c4.283-2.36,8.423-4.998,12.367-7.936h14.694l-64.062,83.782v-63.448H271.208z M178.321,30.417H333.68v49.182H178.321V30.417z
			 M240.791,481.582h-88.772V322.469h-30.417v159.114H86.441v-155.92c0-36.401,23.287-67.455,55.742-79.078l98.609,128.962V481.582z
			 M240.791,325.47l-64.062-83.782h14.694c3.941,2.936,8.077,5.571,12.355,7.93c0.441,0.244,0.883,0.487,1.328,0.725
			c0.493,0.263,0.985,0.528,1.482,0.783c1.024,0.529,2.06,1.039,3.103,1.536c0.194,0.091,0.387,0.181,0.582,0.273
			c9.504,4.456,19.758,7.566,30.518,9.088V325.47z M268.943,231.581c-0.738,0.125-1.479,0.237-2.221,0.342
			c-0.506,0.07-1.015,0.134-1.524,0.194c-0.648,0.078-1.297,0.152-1.947,0.213c-0.682,0.064-1.369,0.112-2.055,0.157
			c-0.507,0.034-1.013,0.076-1.521,0.099c-1.219,0.057-2.443,0.093-3.675,0.093c-1.233,0-2.457-0.036-3.675-0.093
			c-0.508-0.024-1.014-0.066-1.521-0.099c-0.686-0.046-1.373-0.093-2.054-0.157c-0.651-0.062-1.3-0.136-1.949-0.213
			c-0.509-0.061-1.016-0.124-1.522-0.194c-0.743-0.103-1.485-0.216-2.225-0.342c-0.376-0.064-0.749-0.133-1.123-0.202
			c-0.827-0.152-1.654-0.311-2.475-0.491c-0.224-0.049-0.446-0.104-0.669-0.155c-3.867-0.88-7.656-2.059-11.339-3.514
			c-0.391-0.155-0.787-0.303-1.174-0.464c-0.543-0.225-1.08-0.467-1.619-0.706c-0.612-0.271-1.225-0.541-1.829-0.828
			c-0.381-0.18-0.758-0.368-1.136-0.554c-0.791-0.391-1.578-0.79-2.352-1.207c-0.211-0.112-0.422-0.228-0.632-0.343
			c-0.991-0.544-1.973-1.104-2.937-1.69c-0.009-0.006-0.019-0.011-0.028-0.017c-22.417-13.64-37.419-38.306-37.419-66.411v-44.985
			h155.358v0.002v44.985c0,28.105-15.004,52.773-37.423,66.413c-0.006,0.004-0.013,0.008-0.019,0.011
			c-0.967,0.588-1.953,1.151-2.948,1.697c-0.207,0.112-0.414,0.226-0.62,0.337c-0.78,0.419-1.57,0.82-2.364,1.213
			c-0.374,0.185-0.747,0.37-1.124,0.549c-0.608,0.288-1.226,0.561-1.842,0.834c-0.534,0.235-1.068,0.477-1.607,0.7
			c-0.393,0.164-0.795,0.313-1.191,0.47c-3.675,1.452-7.458,2.628-11.318,3.507c-0.226,0.052-0.451,0.107-0.678,0.157
			c-0.819,0.179-1.644,0.338-2.47,0.49C269.696,231.448,269.32,231.518,268.943,231.581z M390.397,481.583V322.469H359.98v159.114
			h-88.772V375.548l98.609-128.962c32.454,11.622,55.742,42.676,55.742,79.078v155.919H390.397z"/>
	</g>
</g>
</svg>