<svg xmlns="http://www.w3.org/2000/svg" xmlns:xlink="http://www.w3.org/1999/xlink" viewBox="0 0 788.17 136.34"><defs><style>.cls-1{fill:none;}.cls-2{isolation:isolate;}.cls-3{fill:#2e3192;}.cls-4{fill:#0af;}.cls-5{fill:url(#linear-gradient);}.cls-6{fill:url(#Degradado_sin_nombre_5);}.cls-7{fill:url(#Degradado_sin_nombre_4);}.cls-8{fill:url(#linear-gradient-2);}.cls-9{fill:url(#linear-gradient-3);}.cls-10{fill:url(#linear-gradient-4);}.cls-11{fill:url(#linear-gradient-5);}.cls-12{fill-rule:evenodd;fill:url(#linear-gradient-6);}.cls-13{fill:url(#linear-gradient-7);}.cls-14{clip-path:url(#clip-path);}.cls-15{fill:url(#Degradado_sin_nombre_150);}.cls-16{fill:#002894;}.cls-16,.cls-19,.cls-22{opacity:0.3;mix-blend-mode:multiply;}.cls-17{clip-path:url(#clip-path-2);}.cls-18{fill:url(#Degradado_sin_nombre_145);}.cls-19{fill:#4300a5;}.cls-20{clip-path:url(#clip-path-3);}.cls-21{fill:url(#Degradado_sin_nombre_136);}.cls-22{fill:#ff4a39;}</style><linearGradient id="linear-gradient" x1="634.94" y1="36.13" x2="602.74" y2="71.9" gradientUnits="userSpaceOnUse"><stop offset="0" stop-color="#15d4ff"/><stop offset="0.16" stop-color="#009eff"/><stop offset="0.26" stop-color="#0098fd"/><stop offset="0.39" stop-color="#0088f9"/><stop offset="0.54" stop-color="#006ef2"/><stop offset="0.7" stop-color="#0049e8"/><stop offset="0.86" stop-color="#001bdb"/><stop offset="0.95" stop-color="#0001d4"/></linearGradient><linearGradient id="Degradado_sin_nombre_5" x1="580.07" y1="36.5" x2="607.69" y2="74.35" gradientUnits="userSpaceOnUse"><stop offset="0" stop-color="#00b7e9"/><stop offset="0.63" stop-color="#00dbff"/><stop offset="0.99" stop-color="#bbf4ff"/></linearGradient><linearGradient id="Degradado_sin_nombre_4" x1="611.69" y1="4.99" x2="631.17" y2="43" gradientUnits="userSpaceOnUse"><stop offset="0.01" stop-color="#bbf4ff"/><stop offset="0.37" stop-color="#00dbff"/><stop offset="1" stop-color="#00b7e9"/></linearGradient><linearGradient id="linear-gradient-2" x1="569.93" y1="55.17" x2="613.23" y2="11.87" xlink:href="#linear-gradient"/><linearGradient id="linear-gradient-3" x1="75.04" y1="112.64" x2="126.4" y2="112.64" gradientUnits="userSpaceOnUse"><stop offset="0" stop-color="#1b75bb"/><stop offset="0.5" stop-color="#2358a6"/><stop offset="1" stop-color="#2b388f"/></linearGradient><linearGradient id="linear-gradient-4" x1="51.18" y1="126.08" x2="150.27" y2="126.08" xlink:href="#linear-gradient-3"/><linearGradient id="linear-gradient-5" x1="18.36" y1="32" x2="128.64" y2="32" xlink:href="#linear-gradient-3"/><linearGradient id="linear-gradient-6" x1="3.53" y1="71.26" x2="139.57" y2="71.26" xlink:href="#linear-gradient-3"/><linearGradient id="linear-gradient-7" x1="131.33" y1="54.25" x2="183.11" y2="54.25" xlink:href="#linear-gradient-3"/><clipPath id="clip-path"><polygon class="cls-1" points="131.34 95.44 138.38 104.05 138.38 58.13 131.34 69.55 131.34 95.44"/></clipPath><linearGradient id="Degradado_sin_nombre_150" x1="29.17" y1="145.28" x2="29.17" y2="16.87" gradientTransform="matrix(1, 0, -0.32, 1, 130.93, 0)" gradientUnits="userSpaceOnUse"><stop offset="0" stop-color="#00eced"/><stop offset="0.1" stop-color="#00e5ea"/><stop offset="0.26" stop-color="#00d0e0"/><stop offset="0.45" stop-color="#00aed1"/><stop offset="0.67" stop-color="#007fbc"/><stop offset="0.9" stop-color="#0044a1"/><stop offset="1" stop-color="#002894"/></linearGradient><clipPath id="clip-path-2"><polygon class="cls-1" points="143.71 104.34 153.51 104.34 153.51 45.46 143.71 56.08 143.71 104.34"/></clipPath><linearGradient id="Degradado_sin_nombre_145" x1="43.84" y1="146.12" x2="43.84" y2="15.98" gradientTransform="matrix(1, 0, -0.32, 1, 130.93, 0)" gradientUnits="userSpaceOnUse"><stop offset="0" stop-color="#4300a5"/><stop offset="0.04" stop-color="#4c04aa"/><stop offset="0.29" stop-color="#8720c8"/><stop offset="0.52" stop-color="#b637e0"/><stop offset="0.72" stop-color="#d847f1"/><stop offset="0.89" stop-color="#ed50fb"/><stop offset="1" stop-color="#f454ff"/></linearGradient><clipPath id="clip-path-3"><path class="cls-1" d="M158.53,104.34a53.57,53.57,0,0,0,9.8-.8V31.09l-9.8,10.62Z"/></clipPath><linearGradient id="Degradado_sin_nombre_136" x1="55.46" y1="153.26" x2="55.46" y2="-28.55" gradientTransform="matrix(1, 0, -0.32, 1, 130.93, 0)" gradientUnits="userSpaceOnUse"><stop offset="0" stop-color="#ff4a39"/><stop offset="0.25" stop-color="#ff8126"/><stop offset="0.49" stop-color="#ffb015"/><stop offset="0.71" stop-color="#ffd20a"/><stop offset="0.88" stop-color="#ffe703"/><stop offset="1" stop-color="#fe0"/></linearGradient></defs><title>meta_core_rec_logo</title><g class="cls-2"><g id="Layer_1" data-name="Layer 1"><g id="metacore"><path class="cls-3" d="M250.24,75.24a4.39,4.39,0,0,1-4-2.31L215.44,22.08V70.53a4.62,4.62,0,0,1-1.35,3.32,4.34,4.34,0,0,1-3.26,1.39,4.75,4.75,0,0,1-4.71-4.71V12.65a4.51,4.51,0,0,1,1.39-3.31,4.53,4.53,0,0,1,3.32-1.4h4.42a4.39,4.39,0,0,1,4,2.31l31,51.24L281.1,10.25a4.39,4.39,0,0,1,4-2.31h4.42a4.76,4.76,0,0,1,4.71,4.71V70.53a4.75,4.75,0,0,1-4.71,4.71,4.38,4.38,0,0,1-3.27-1.39A4.65,4.65,0,0,1,285,70.53V22.08L254.18,72.93A4.29,4.29,0,0,1,250.24,75.24Z"/><path class="cls-3" d="M289.56,76.24a5.33,5.33,0,0,1-4-1.7,5.59,5.59,0,0,1-1.63-4V25.65L255,73.45a5.34,5.34,0,0,1-4.8,2.79,5.42,5.42,0,0,1-4.9-2.8l-28.9-47.79V70.53a5.61,5.61,0,0,1-1.63,4,5.35,5.35,0,0,1-4,1.7,5.75,5.75,0,0,1-5.71-5.71V12.65a5.56,5.56,0,0,1,1.68-4,5.52,5.52,0,0,1,4-1.68h4.42a5.42,5.42,0,0,1,4.9,2.8l30.09,49.81,30-49.82A5.39,5.39,0,0,1,285.14,7h4.42a5.5,5.5,0,0,1,4,1.68,5.53,5.53,0,0,1,1.69,4V70.53a5.77,5.77,0,0,1-5.71,5.71ZM286,18.5v52A3.59,3.59,0,0,0,287,73.15a3.36,3.36,0,0,0,2.55,1.09,3.57,3.57,0,0,0,2.62-1.1,3.53,3.53,0,0,0,1.1-2.61V12.65a3.76,3.76,0,0,0-3.72-3.71h-4.42A3.39,3.39,0,0,0,282,10.75L250.24,63.42,218.43,10.77a3.39,3.39,0,0,0-3.18-1.83h-4.42a3.76,3.76,0,0,0-3.72,3.71V70.53a3.76,3.76,0,0,0,3.72,3.71,3.38,3.38,0,0,0,2.55-1.09,3.59,3.59,0,0,0,1.06-2.62v-52l32.62,53.92a3.38,3.38,0,0,0,3.18,1.82,3.29,3.29,0,0,0,3.08-1.81Z"/><path class="cls-3" d="M356.76,65.92a4.59,4.59,0,0,1,4.62,4.61A4.62,4.62,0,0,1,360,73.85a4.38,4.38,0,0,1-3.27,1.39H312.64a4.76,4.76,0,0,1-4.72-4.71V12.65a4.52,4.52,0,0,1,1.4-3.31,4.53,4.53,0,0,1,3.32-1.4h44A4.52,4.52,0,0,1,360,9.34a4.52,4.52,0,0,1,1.4,3.31,4.36,4.36,0,0,1-1.4,3.27,4.59,4.59,0,0,1-3.31,1.35H317.25V36h34.8a4.59,4.59,0,0,1,4.62,4.61A4.62,4.62,0,0,1,355.32,44a4.38,4.38,0,0,1-3.27,1.39h-34.8V65.92Z"/><path class="cls-3" d="M356.76,76.24H312.64a5.75,5.75,0,0,1-5.71-5.71V12.65a5.56,5.56,0,0,1,1.68-4,5.52,5.52,0,0,1,4-1.68h44a5.5,5.5,0,0,1,4,1.68,5.52,5.52,0,0,1,1.68,4,5.38,5.38,0,0,1-1.69,4,5.61,5.61,0,0,1-4,1.63H318.25V35h33.8a5.6,5.6,0,0,1,5.61,5.61,5.58,5.58,0,0,1-1.62,4,5.35,5.35,0,0,1-4,1.7h-33.8V64.92h38.51a5.58,5.58,0,0,1,5.61,5.61,5.6,5.6,0,0,1-1.62,4A5.35,5.35,0,0,1,356.76,76.24ZM312.64,8.94a3.76,3.76,0,0,0-3.72,3.71V70.53a3.76,3.76,0,0,0,3.72,3.71h44.12a3.38,3.38,0,0,0,2.56-1.09,3.63,3.63,0,0,0,1.06-2.62,3.6,3.6,0,0,0-3.62-3.62H316.25V44.35h35.8a3.38,3.38,0,0,0,2.55-1.09,3.64,3.64,0,0,0,1.07-2.63A3.6,3.6,0,0,0,352.05,37h-35.8V16.27h40.42a3.63,3.63,0,0,0,2.62-1.06,3.42,3.42,0,0,0,1.09-2.56,3.56,3.56,0,0,0-1.1-2.61,3.55,3.55,0,0,0-2.61-1.1Z"/><path class="cls-3" d="M370.41,17.27a4.58,4.58,0,0,1-3.31-1.35,4.36,4.36,0,0,1-1.4-3.27,4.52,4.52,0,0,1,1.4-3.31,4.51,4.51,0,0,1,3.31-1.4h54.8a4.76,4.76,0,0,1,4.71,4.71,4.35,4.35,0,0,1-1.39,3.27,4.62,4.62,0,0,1-3.32,1.35H402.52V70.53a4.71,4.71,0,0,1-9.42,0V17.27Z"/><path class="cls-3" d="M397.81,76.24a5.75,5.75,0,0,1-5.7-5.71V18.27h-21.7a5.61,5.61,0,0,1-4-1.63,5.38,5.38,0,0,1-1.69-4,5.52,5.52,0,0,1,1.68-4,5.5,5.5,0,0,1,4-1.68h54.8a5.5,5.5,0,0,1,4,1.68,5.54,5.54,0,0,1,1.69,4,5.35,5.35,0,0,1-1.7,4,5.59,5.59,0,0,1-4,1.63H403.52V70.53a5.75,5.75,0,0,1-5.71,5.71Zm-27.4-67.3a3.76,3.76,0,0,0-3.71,3.71,3.42,3.42,0,0,0,1.09,2.56,3.63,3.63,0,0,0,2.62,1.06H394.1V70.53a3.76,3.76,0,0,0,3.71,3.71,3.57,3.57,0,0,0,2.62-1.1,3.53,3.53,0,0,0,1.1-2.61V16.27h23.68a3.65,3.65,0,0,0,2.63-1.06,3.42,3.42,0,0,0,1.09-2.56A3.53,3.53,0,0,0,427.82,10a3.53,3.53,0,0,0-2.61-1.1Z"/><path class="cls-3" d="M491.45,68.51a4.42,4.42,0,0,1,.24,3.56,4.53,4.53,0,0,1-2.35,2.69,5.38,5.38,0,0,1-2,.48,4.86,4.86,0,0,1-2.5-.67,4.19,4.19,0,0,1-1.73-1.92l-7.5-15.1H437.71l-7.5,15.1a4.94,4.94,0,0,1-1.78,1.92,4.58,4.58,0,0,1-2.45.67,5.42,5.42,0,0,1-2-.48,4.53,4.53,0,0,1-2.35-2.69,4.42,4.42,0,0,1,.24-3.56l28.65-58a4.94,4.94,0,0,1,1.78-1.92,4.59,4.59,0,0,1,2.45-.68h3.84a4.34,4.34,0,0,1,4.23,2.6ZM471,48.13,456.65,19.29,442.42,48.13Z"/><path class="cls-3" d="M487.32,76.24a5.85,5.85,0,0,1-3-.81,5.19,5.19,0,0,1-2.14-2.37L475,58.55H438.33l-7.22,14.54A6,6,0,0,1,429,75.42a5.65,5.65,0,0,1-3,.82,6.32,6.32,0,0,1-2.4-.56,5.55,5.55,0,0,1-2.91-3.29,5.38,5.38,0,0,1,.29-4.32l28.64-58a6,6,0,0,1,2.16-2.33,5.56,5.56,0,0,1,3-.82h3.84a5.34,5.34,0,0,1,5.13,3.16l28.65,58a5.46,5.46,0,0,1,.29,4.32,5.55,5.55,0,0,1-2.86,3.26A6.23,6.23,0,0,1,487.32,76.24ZM437.09,56.55h39.12L484,72.2a3.25,3.25,0,0,0,1.34,1.51,3.86,3.86,0,0,0,2,.53,4.36,4.36,0,0,0,1.63-.4,3.5,3.5,0,0,0,1.8-2.1,3.42,3.42,0,0,0-.19-2.78h0L461.91,11a3.36,3.36,0,0,0-3.34-2h-3.84a3.6,3.6,0,0,0-1.94.53A3.91,3.91,0,0,0,451.38,11L422.74,69a3.44,3.44,0,0,0-.19,2.79,3.67,3.67,0,0,0,5.37,2,4,4,0,0,0,1.42-1.55Zm35.49-7.42H440.82L456.65,17Zm-28.55-2h25.34l-12.72-25.6Z"/><path class="cls-4" d="M528.47,75.24a32.81,32.81,0,0,1-13.08-2.64,33.62,33.62,0,0,1-17.93-17.93,33.7,33.7,0,0,1,0-26.15,33.62,33.62,0,0,1,17.93-17.93,32.81,32.81,0,0,1,13.08-2.65h8.84a33.27,33.27,0,0,1,23.27,9.33,4.55,4.55,0,0,1,1.49,3.32,4.33,4.33,0,0,1-1.3,3.31,4.61,4.61,0,0,1-3.37,1.44,4.41,4.41,0,0,1-3.26-1.24,22.67,22.67,0,0,0-7.69-5.1,24.47,24.47,0,0,0-9.14-1.73h-8.84a23.34,23.34,0,0,0-9.42,1.92,24.71,24.71,0,0,0-13,13,24,24,0,0,0,0,18.84,24.71,24.71,0,0,0,13,13,23.18,23.18,0,0,0,9.42,1.93h8.84a24.28,24.28,0,0,0,9.14-1.74,22.79,22.79,0,0,0,7.69-5.09,4.42,4.42,0,0,1,3.26-1.25,4.61,4.61,0,0,1,3.37,1.44,4.36,4.36,0,0,1,1.3,3.32,4.57,4.57,0,0,1-1.49,3.32,33.2,33.2,0,0,1-23.27,9.32Z"/><path class="cls-4" d="M537.31,76.24h-8.84A33.82,33.82,0,0,1,515,73.51a34.61,34.61,0,0,1-18.45-18.45,34.6,34.6,0,0,1,0-26.94A34.61,34.61,0,0,1,515,9.67,33.88,33.88,0,0,1,528.47,7h8.84a34.17,34.17,0,0,1,24,9.6,5.49,5.49,0,0,1,1.79,4,5.32,5.32,0,0,1-1.59,4.05,5.59,5.59,0,0,1-4.07,1.73,5.4,5.4,0,0,1-4-1.54,21.7,21.7,0,0,0-7.35-4.87,23.38,23.38,0,0,0-8.77-1.66h-8.84a22.37,22.37,0,0,0-9,1.84A23.72,23.72,0,0,0,507,32.57a23.05,23.05,0,0,0,0,18,23.72,23.72,0,0,0,12.46,12.46,22.5,22.5,0,0,0,9,1.84h8.84a23.58,23.58,0,0,0,8.77-1.66,21.9,21.9,0,0,0,7.35-4.87,5.37,5.37,0,0,1,4-1.55,5.6,5.6,0,0,1,4.07,1.74,5.28,5.28,0,0,1,1.59,4,5.49,5.49,0,0,1-1.8,4,34.24,34.24,0,0,1-24,9.6Zm-8.84-67.3a31.89,31.89,0,0,0-12.68,2.56,32.63,32.63,0,0,0-17.41,17.41,32.68,32.68,0,0,0,0,25.36,32.63,32.63,0,0,0,17.41,17.41,31.89,31.89,0,0,0,12.68,2.56h8.84a32.28,32.28,0,0,0,22.58-9,3.55,3.55,0,0,0,1.18-2.63,3.31,3.31,0,0,0-1-2.58,3.59,3.59,0,0,0-2.66-1.15,3.45,3.45,0,0,0-2.56.95,23.88,23.88,0,0,1-8,5.32,25.41,25.41,0,0,1-9.51,1.8h-8.84a24.46,24.46,0,0,1-9.82-2,25.7,25.7,0,0,1-13.5-13.5,25.11,25.11,0,0,1,0-19.64,25.73,25.73,0,0,1,13.5-13.49,24.47,24.47,0,0,1,9.82-2h8.84a25.6,25.6,0,0,1,9.51,1.8,23.88,23.88,0,0,1,8,5.32,3.4,3.4,0,0,0,2.56,1,3.66,3.66,0,0,0,2.67-1.15,3.35,3.35,0,0,0,1-2.59A3.52,3.52,0,0,0,559.9,18a32.22,32.22,0,0,0-22.59-9.06Z"/><path class="cls-4" d="M657.7,75.24A4.75,4.75,0,0,1,653,70.53V12.65a4.76,4.76,0,0,1,4.71-4.71h35.67a21.23,21.23,0,0,1,8.51,1.73,22.2,22.2,0,0,1,11.68,11.69,21.18,21.18,0,0,1,1.73,8.5,21.79,21.79,0,0,1-1.11,7,21.64,21.64,0,0,1-7.93,10.82,21.66,21.66,0,0,1-6.06,3.08l14,16.82A4.72,4.72,0,0,1,715.34,71,4.76,4.76,0,0,1,707,73.61L689.23,52.26a2,2,0,0,1-.28-.48H662.32V70.53A4.62,4.62,0,0,1,661,73.85,4.38,4.38,0,0,1,657.7,75.24Zm4.62-32.78h31a12.14,12.14,0,0,0,4.9-1A12.6,12.6,0,0,0,705,34.77,12.42,12.42,0,0,0,705,25a12.6,12.6,0,0,0-6.68-6.68,12.14,12.14,0,0,0-4.9-1h-31Z"/><path class="cls-4" d="M710.67,76.24a5.68,5.68,0,0,1-4.4-2L688.49,52.93s-.08-.09-.12-.15H663.31V70.53a5.6,5.6,0,0,1-1.62,4,5.35,5.35,0,0,1-4,1.7A5.77,5.77,0,0,1,652,70.53V12.65a5.53,5.53,0,0,1,1.69-4,5.5,5.5,0,0,1,4-1.68h35.67a22.27,22.27,0,0,1,8.9,1.81A23.13,23.13,0,0,1,714.47,21a22.27,22.27,0,0,1,1.81,8.9,22.77,22.77,0,0,1-14.41,21.32L715,66.91a5.66,5.66,0,0,1-4.32,9.33ZM661.32,50.79h28.24l.28.55a2.12,2.12,0,0,0,.15.28L707.79,73a3.65,3.65,0,0,0,2.88,1.27A3.72,3.72,0,0,0,713,73.4a3.59,3.59,0,0,0,1.3-2.51,3.68,3.68,0,0,0-.88-2.71l-15-18,1.41-.45a20.89,20.89,0,0,0,5.78-2.94,21.25,21.25,0,0,0,4.59-4.54,20.81,20.81,0,0,0,4-12.44,20.14,20.14,0,0,0-1.65-8.11,21.15,21.15,0,0,0-11.16-11.16,20.14,20.14,0,0,0-8.11-1.65H657.7a3.53,3.53,0,0,0-2.61,1.1,3.55,3.55,0,0,0-1.1,2.61V70.53a3.76,3.76,0,0,0,3.71,3.71,3.36,3.36,0,0,0,2.55-1.09,3.6,3.6,0,0,0,1.07-2.62Zm32-7.34h-32V16.27h32a13.07,13.07,0,0,1,5.3,1.1,13.81,13.81,0,0,1,4.3,2.9,14,14,0,0,1,2.9,4.29,13.45,13.45,0,0,1,0,10.61,13.61,13.61,0,0,1-7.2,7.19A13.06,13.06,0,0,1,693.37,43.45Zm-30.06-2h30.06a11.22,11.22,0,0,0,4.5-.92,11.94,11.94,0,0,0,3.69-2.49A12.16,12.16,0,0,0,704,34.37a11.38,11.38,0,0,0,0-9,11.64,11.64,0,0,0-6.17-6.17,11.22,11.22,0,0,0-4.5-.92H663.31Z"/><path class="cls-4" d="M777.37,65.92A4.58,4.58,0,0,1,782,70.53a4.65,4.65,0,0,1-1.34,3.32,4.38,4.38,0,0,1-3.27,1.39H733.24a4.75,4.75,0,0,1-4.71-4.71V12.65a4.76,4.76,0,0,1,4.71-4.71h44A4.76,4.76,0,0,1,782,12.65a4.35,4.35,0,0,1-1.39,3.27,4.62,4.62,0,0,1-3.32,1.35H737.85V36h34.81a4.59,4.59,0,0,1,4.61,4.61A4.62,4.62,0,0,1,775.92,44a4.34,4.34,0,0,1-3.26,1.39H737.85V65.92Z"/><path class="cls-4" d="M777.37,76.24H733.24a5.77,5.77,0,0,1-5.71-5.71V12.65a5.53,5.53,0,0,1,1.69-4,5.5,5.5,0,0,1,4-1.68h44a5.5,5.5,0,0,1,4,1.68,5.53,5.53,0,0,1,1.69,4,5.35,5.35,0,0,1-1.7,4,5.59,5.59,0,0,1-4,1.63H738.85V35h33.81a5.6,5.6,0,0,1,5.61,5.61,5.59,5.59,0,0,1-1.63,4,5.35,5.35,0,0,1-4,1.7H738.85V64.92h38.52A5.6,5.6,0,0,1,783,70.53a5.61,5.61,0,0,1-1.63,4A5.35,5.35,0,0,1,777.37,76.24ZM733.24,8.94a3.53,3.53,0,0,0-2.61,1.1,3.55,3.55,0,0,0-1.1,2.61V70.53a3.76,3.76,0,0,0,3.71,3.71h44.13a3.36,3.36,0,0,0,2.55-1.09A3.6,3.6,0,0,0,781,70.53a3.62,3.62,0,0,0-3.62-3.62H736.86V44.35h35.8a3.4,3.4,0,0,0,2.55-1.09,3.63,3.63,0,0,0,1.06-2.63A3.6,3.6,0,0,0,772.66,37h-35.8V16.27h40.41a3.63,3.63,0,0,0,2.62-1.06,3.39,3.39,0,0,0,1.1-2.56A3.57,3.57,0,0,0,779.88,10a3.53,3.53,0,0,0-2.61-1.1Z"/><path class="cls-5" d="M641.24,33.09a34.65,34.65,0,0,1-48.35,22.84,34.7,34.7,0,0,0,14.19,16,34.06,34.06,0,0,0,8.07,3.46,34.68,34.68,0,0,0,26.09-42.32Z"/><path class="cls-6" d="M607.08,72A34.66,34.66,0,0,1,593,28.09a34.82,34.82,0,0,0-15.15,14.1A34.2,34.2,0,0,0,574.29,51a34.6,34.6,0,0,0,40.86,24.46A34.06,34.06,0,0,1,607.08,72Z"/><path class="cls-7" d="M617.15,8.28A34.79,34.79,0,0,0,599,8,34.67,34.67,0,0,1,621.8,56.21a34.82,34.82,0,0,0,19.44-23.12A34.72,34.72,0,0,0,617.15,8.28Z"/><path class="cls-8" d="M608,11.74A34.52,34.52,0,0,0,599,8,34.64,34.64,0,0,0,574.29,51a34.2,34.2,0,0,1,3.52-8.76,34.63,34.63,0,0,1,44.36-14.4A34.81,34.81,0,0,0,608,11.74Z"/></g><g id="systems_inc" data-name="systems inc"><path d="M415.44,98.06v5.51q4,1.19,11.44,3.45l10.58,3.2a5.06,5.06,0,0,1,2.51,1.4,4.57,4.57,0,0,1,.53,2.54v10.66a3.94,3.94,0,0,1-1.15,2.8,3.57,3.57,0,0,1-2.66,1.2H412.63a3.47,3.47,0,0,1-2.63-1.2,4,4,0,0,1-1.12-2.8v-5.23a3.61,3.61,0,0,1,.85-2.5,3.28,3.28,0,0,1,4.62,0,3.57,3.57,0,0,1,.87,2.5v2.34h18.85v-5.6q-15.4-4.58-22-6.61a3.89,3.89,0,0,1-3.12-4V95.17a4,4,0,0,1,1.16-2.87,3.64,3.64,0,0,1,2.73-1.21h24a3.55,3.55,0,0,1,2.66,1.22,4.07,4.07,0,0,1,1.14,2.86v5.23a3.53,3.53,0,0,1-.88,2.5,3.1,3.1,0,0,1-2.37.95,3,3,0,0,1-2.3-.95,3.57,3.57,0,0,1-.87-2.5V98.06Z"/><path d="M476.33,93.9a3.13,3.13,0,0,1-.86,2.12L463.9,111.68v13.83A3.46,3.46,0,0,1,463,128a3.07,3.07,0,0,1-2.36.92,2.9,2.9,0,0,1-2.24-.93,3.49,3.49,0,0,1-.87-2.46V112q-9.54-13.2-11.63-16a4.32,4.32,0,0,1-.86-2,1.91,1.91,0,0,1,.72-1.61,3.22,3.22,0,0,1,2-.57h1.32a4,4,0,0,1,1.79.44,3.74,3.74,0,0,1,1.41,1.19l8.38,11.27c.93-1.25,2.34-3.13,4.2-5.64l4.2-5.63a4.32,4.32,0,0,1,1.4-1.17,3.5,3.5,0,0,1,1.72-.46h1.32C475.41,91.72,476.33,92.45,476.33,93.9Z"/><path d="M487.3,98.69V104l21.53,6.5a5.4,5.4,0,0,1,2.5,1.45,4.42,4.42,0,0,1,.53,2.49v10.39a4,4,0,0,1-1.12,2.82,3.46,3.46,0,0,1-2.6,1.18H484.49a3.38,3.38,0,0,1-2.59-1.17,4,4,0,0,1-1.08-2.83v-5.1a3.5,3.5,0,0,1,.86-2.45,3,3,0,0,1,2.31-.94,2.9,2.9,0,0,1,2.25,1,3.45,3.45,0,0,1,.87,2.43V122h18.41v-5.34L484,110.13c-2.08-.73-3.11-2-3.11-3.94V95.88A4.13,4.13,0,0,1,482,93a3.61,3.61,0,0,1,2.72-1.19h23.56A3.42,3.42,0,0,1,510.88,93,4.14,4.14,0,0,1,512,95.88V101a3.46,3.46,0,0,1-.89,2.46,3.07,3.07,0,0,1-2.34.93,2.89,2.89,0,0,1-2.25-1,3.49,3.49,0,0,1-.86-2.44V98.69Z"/><path d="M547.83,95.17a3.65,3.65,0,0,1-.86,2.52,2.9,2.9,0,0,1-2.26,1h-9.29v26.87a3.43,3.43,0,0,1-.88,2.47,3.11,3.11,0,0,1-2.37.92,2.9,2.9,0,0,1-2.24-.93,3.49,3.49,0,0,1-.87-2.46V98.64H519.6a3,3,0,0,1-2.33-.94,3.65,3.65,0,0,1-.84-2.53,3.49,3.49,0,0,1,.86-2.47,3,3,0,0,1,2.31-.92h25.11a2.94,2.94,0,0,1,2.25.93A3.49,3.49,0,0,1,547.83,95.17Z"/><path d="M574,109.86a3.53,3.53,0,0,1-.87,2.49,3,3,0,0,1-2.36,1H558.61V122h21.88a3,3,0,0,1,2.3,1,3.68,3.68,0,0,1,.87,2.56,3.42,3.42,0,0,1-.88,2.44,3,3,0,0,1-2.29,1H556.07a3.55,3.55,0,0,1-2.7-1.17,4.06,4.06,0,0,1-1.1-2.91V95.94A4.25,4.25,0,0,1,553.38,93a3.47,3.47,0,0,1,2.69-1.25h24.42a3,3,0,0,1,2.29,1,4,4,0,0,1,0,5,2.94,2.94,0,0,1-2.3,1H558.61v7.69h12.15a3.09,3.09,0,0,1,2.36.94A3.59,3.59,0,0,1,574,109.86Z"/><path d="M628.59,95a5.75,5.75,0,0,1,.14,1.27v29.35a3.47,3.47,0,0,1-.83,2.44,2.91,2.91,0,0,1-2.26.9,3,3,0,0,1-2.31-.93,3.46,3.46,0,0,1-.86-2.46V104l-14.11,15.73L594.3,103.93v21.58a3.62,3.62,0,0,1-.81,2.47,2.87,2.87,0,0,1-2.28.92,3,3,0,0,1-2.27-.88,3.3,3.3,0,0,1-.84-2.37V96.24a5,5,0,0,1,.14-1.21,3.38,3.38,0,0,1,.92-2.22,2.79,2.79,0,0,1,2.05-.81h.14a6.33,6.33,0,0,1,1.19-.06l15.87,18.28L624.23,92a5.15,5.15,0,0,1,1.27.08h.14a2.79,2.79,0,0,1,2,.78A3.31,3.31,0,0,1,628.59,95Z"/><path d="M639.78,98.69V104l21.53,6.5a5.51,5.51,0,0,1,2.51,1.45,4.44,4.44,0,0,1,.52,2.49v10.39a4,4,0,0,1-1.12,2.82,3.46,3.46,0,0,1-2.6,1.18H637a3.38,3.38,0,0,1-2.59-1.17,4,4,0,0,1-1.08-2.83v-5.1a3.5,3.5,0,0,1,.86-2.45,3,3,0,0,1,2.31-.94,2.9,2.9,0,0,1,2.25,1,3.45,3.45,0,0,1,.87,2.43V122H658v-5.34l-21.53-6.51c-2.07-.73-3.11-2-3.11-3.94V95.88A4.13,4.13,0,0,1,634.47,93a3.61,3.61,0,0,1,2.72-1.19h23.57a3.42,3.42,0,0,1,2.6,1.21,4.1,4.1,0,0,1,1.12,2.89V101a3.49,3.49,0,0,1-.88,2.46,3.09,3.09,0,0,1-2.35.93,2.87,2.87,0,0,1-2.24-1,3.46,3.46,0,0,1-.87-2.44V98.69Z"/><path d="M689.09,94.53a3.62,3.62,0,0,1,.84-2.52,3.36,3.36,0,0,1,4.63,0,3.55,3.55,0,0,1,.87,2.51v30.93a3.55,3.55,0,0,1-.87,2.51,3.36,3.36,0,0,1-4.63,0,3.62,3.62,0,0,1-.84-2.52Z"/><path d="M706.15,104.12v21.39a3.62,3.62,0,0,1-.81,2.47,2.85,2.85,0,0,1-2.27.92,3,3,0,0,1-2.28-.88,3.3,3.3,0,0,1-.84-2.37V96.24a5.86,5.86,0,0,1,.73-3A2.57,2.57,0,0,1,703.07,92h1.46l20,24.69V95.3a3.51,3.51,0,0,1,.82-2.45,2.93,2.93,0,0,1,2.29-.91,3,3,0,0,1,2.28.87,3.24,3.24,0,0,1,.84,2.36V124.6a5.77,5.77,0,0,1-.73,3,2.6,2.6,0,0,1-2.39,1.18h-1.49Z"/><path d="M741.57,122h21.89a3,3,0,0,1,2.3,1,3.68,3.68,0,0,1,.87,2.56,3.46,3.46,0,0,1-.88,2.44,3,3,0,0,1-2.29,1H739a3.55,3.55,0,0,1-2.7-1.17,4.06,4.06,0,0,1-1.11-2.91V95.94A4.26,4.26,0,0,1,736.35,93,3.45,3.45,0,0,1,739,91.78h24.42a3,3,0,0,1,2.29,1,3.61,3.61,0,0,1,.88,2.51,3.53,3.53,0,0,1-.87,2.49,3,3,0,0,1-2.3,1H741.57Z"/><path d="M774.46,129a3.14,3.14,0,0,1-2.47-1,3.89,3.89,0,0,1-.92-2.71,3.77,3.77,0,0,1,.93-2.65,3.2,3.2,0,0,1,2.46-1h.27a3.17,3.17,0,0,1,2.48,1,3.8,3.8,0,0,1,.91,2.66,3.93,3.93,0,0,1-.91,2.73,3.14,3.14,0,0,1-2.48,1Z"/></g><rect class="cls-9" x="75.04" y="107.75" width="51.36" height="9.79" rx="4.89"/><rect class="cls-10" x="51.18" y="121.19" width="99.09" height="9.79" rx="4.89"/><path class="cls-11" d="M42.65,14.38H37.54a14.6,14.6,0,0,0-5.13.73,6.34,6.34,0,0,0-4.49,6.41V48.57l-9.56,9.56V19.62c0-6.12,3.25-9.83,8.66-12.13,2.58-1.1,6.14-1.63,10.69-1.63h83.78l7.15,8.52-86-.09"/><path class="cls-12" d="M106.11,95.46H116V92.65l13.45,11.69H38.28c-6,0-13-1-17.18-5.8a12.7,12.7,0,0,1-3-8.54v-7L3.53,93.11l37-37.94L80.84,79.88l36.61-33.54-10.56-5.79,32.68-2.38L82.12,92.09,41.35,67,28.08,76.18V88a6.82,6.82,0,0,0,1.64,4.74c2.09,2.21,5.3,2.7,8.2,2.7h68.46"/><path class="cls-13" d="M183.11,81.28v8c0,7-4.27,11.71-10.72,13.93l0-21.92.05-58.53c0-6.35-5.38-8-10.72-8h-17.9v4.89L131.33,5.29h30.22c5.07,0,9,.6,11.91,1.82,6.06,2.6,9.65,6.79,9.65,13.52Z"/><g class="cls-14"><polygon class="cls-15" points="177.88 15.8 132.13 15.8 90 146.38 135.75 146.38 177.88 15.8"/><polygon class="cls-16" points="177.88 15.8 155.5 15.8 113.37 146.38 135.75 146.38 177.88 15.8"/></g><g class="cls-17"><polygon class="cls-18" points="192.55 15.8 146.8 15.8 104.67 146.38 150.42 146.38 192.55 15.8"/><polygon class="cls-19" points="192.55 15.8 169.31 15.8 127.18 146.38 150.42 146.38 192.55 15.8"/></g><g class="cls-20"><polygon class="cls-21" points="196 -31.95 149.37 1.69 162.97 1.69 114.33 152.97 160.08 152.97 208.72 1.69 222.32 1.69 196 -31.95"/><polygon class="cls-22" points="208.72 1.69 222.32 1.69 196 -31.95 135.09 152.97 160.08 152.97 208.72 1.69"/></g></g></g></svg>