<?xml version="1.0" ?>
<!-- Uploaded to: SVG Repo, www.svgrepo.com, Generator: SVG Repo Mixer Tools -->
<svg width="800px" height="800px" viewBox="0 0 50 50" id="Layer_1" version="1.1" xml:space="preserve" xmlns="http://www.w3.org/2000/svg" xmlns:xlink="http://www.w3.org/1999/xlink">
<style type="text/css">
	.st0{fill:#4D4C4D;}
	.st1{fill:#E8E4E7;}
	.st2{fill:#53B2E4;}
	.st3{fill:#656766;}
	.st4{fill:#FFCA65;}
	.st5{fill:#BC8D5D;}
	.st6{fill:#D3D3D3;}
	.st7{fill:#ED6F62;}
	.st8{fill:#86BE57;}
</style>
<g>
<g>
<rect class="st0" height="10.7" width="1" x="25.4" y="17.5"/>
</g>
<g>
<path class="st0" d="M39.3,36.8h-1v-5.1c0-1.5-1.3-2.8-2.8-2.8H16.2c-1.5,0-2.8,1.3-2.8,2.8v5.1h-1v-5.1c0-2.1,1.7-3.8,3.8-3.8    h19.3c2.1,0,3.8,1.7,3.8,3.8V36.8z"/>
</g>
<g>
<path class="st1" d="M49,13.8c0,4.7-3.8,8.5-8.5,8.5c-4.7,0-30.5,0-32.3,0c-3.9,0-7.1-3.2-7.1-7.1c0-3.9,3.2-7.1,7.1-7.1    c0.2,0,0.4,0,0.6,0c1.4-4.4,5.5-7.6,10.4-7.6c2.8,0,5.3,1,7.2,2.7c1.1-1.2,2.7-2,4.5-2c3,0,5.4,2.1,6,4.8c1.1-0.5,2.3-0.8,3.6-0.8    C45.2,5.2,49,9.1,49,13.8z"/>
</g>
<g>
<circle class="st2" cx="25.9" cy="28.5" r="2.8"/>
</g>
<g>
<g>
<g>
<rect class="st0" height="1.5" width="8.7" x="6.7" y="46.3"/>
</g>
<g>
<path class="st3" d="M16.2,47.7H5.9c-0.5,0-0.9,0.4-0.9,0.9v0c0,0.5,0.4,0.9,0.9,0.9h10.3c0.5,0,0.9-0.4,0.9-0.9v0      C17.1,48.1,16.7,47.7,16.2,47.7z"/>
</g>
<g>
<path class="st3" d="M19.2,32.7H2.9c-1.1,0-1.9,0.9-1.9,1.9v10c0,1.1,0.9,1.9,1.9,1.9h16.3c1.1,0,1.9-0.9,1.9-1.9v-10      C21.1,33.6,20.2,32.7,19.2,32.7z"/>
</g>
</g>
<g>
<path class="st1" d="M2.9,44.2c-0.5,0-1-0.4-1-1v-8.6c0-0.5,0.4-1,1-1h16.3c0.5,0,1,0.4,1,1v8.6c0,0.5-0.4,1-1,1H2.9z"/>
</g>
<g>
<path class="st2" d="M20.2,35.2v-0.6c0-0.5-0.4-1-1-1H2.9c-0.5,0-1,0.4-1,1v0.6H20.2z"/>
</g>
<g>
<rect class="st4" height="7.3" width="5.6" x="2.9" y="36"/>
</g>
<g>
<rect class="st5" height="2.8" width="9.6" x="9.5" y="36"/>
</g>
<g>
<rect class="st6" height="0.8" width="9.6" x="9.5" y="39.6"/>
</g>
<g>
<rect class="st6" height="0.8" width="9.6" x="9.5" y="41"/>
</g>
<g>
<rect class="st6" height="0.8" width="9.6" x="9.5" y="42.5"/>
</g>
<g>
<g>
<rect class="st0" height="1.5" width="8.7" x="34.6" y="46.3"/>
</g>
<g>
<path class="st3" d="M44.1,47.7H33.8c-0.5,0-0.9,0.4-0.9,0.9v0c0,0.5,0.4,0.9,0.9,0.9h10.3c0.5,0,0.9-0.4,0.9-0.9v0      C45,48.1,44.6,47.7,44.1,47.7z"/>
</g>
<g>
<path class="st3" d="M47.1,32.7H30.8c-1.1,0-1.9,0.9-1.9,1.9v10c0,1.1,0.9,1.9,1.9,1.9h16.3c1.1,0,1.9-0.9,1.9-1.9v-10      C49,33.6,48.1,32.7,47.1,32.7z"/>
</g>
</g>
<g>
<path class="st1" d="M30.8,44.2c-0.5,0-1-0.4-1-1v-8.6c0-0.5,0.4-1,1-1h16.3c0.5,0,1,0.4,1,1v8.6c0,0.5-0.4,1-1,1H30.8z"/>
</g>
<g>
<path class="st2" d="M48.1,35.2v-0.6c0-0.5-0.4-1-1-1H30.8c-0.5,0-1,0.4-1,1v0.6H48.1z"/>
</g>
<g>
<rect class="st7" height="7.3" width="5.6" x="30.8" y="36"/>
</g>
<g>
<rect class="st8" height="2.8" width="9.6" x="37.5" y="36"/>
</g>
<g>
<rect class="st6" height="0.8" width="9.6" x="37.5" y="39.6"/>
</g>
<g>
<rect class="st6" height="0.8" width="9.6" x="37.5" y="41"/>
</g>
<g>
<rect class="st6" height="0.8" width="9.6" x="37.5" y="42.5"/>
</g>
</g>
</g>
</svg>