<?xml version="1.0" encoding="utf-8"?>
<!-- Generator: Adobe Illustrator 23.0.5, SVG Export Plug-In . SVG Version: 6.00 Build 0)  -->
<svg version="1.1" id="Layer_1" xmlns="http://www.w3.org/2000/svg" xmlns:xlink="http://www.w3.org/1999/xlink" x="0px" y="0px"
	 viewBox="0 0 144 144" style="enable-background:new 0 0 144 144;" xml:space="preserve">
<style type="text/css">
	.st0{fill:#FFF8D2;}
	.st1{fill:#010101;}
	.st2{fill:#FACA45;}
	.st3{fill:#93D9F8;}
	.st4{fill:#E74D3D;}
</style>
<g>
	<g>
		<g>
			<g>
				<path class="st0" d="M78.9,33.86c24.99,0,45.25,20.26,45.25,45.25s-20.26,45.23-45.25,45.23c-24.99,0-45.24-20.25-45.24-45.23
					S53.91,33.86,78.9,33.86z"/>
			</g>
			<g>
				<path class="st1" d="M78.9,125.48c-25.57,0-46.37-20.8-46.37-46.37c0-25.58,20.8-46.38,46.37-46.38
					c25.58,0,46.38,20.81,46.38,46.38C125.28,104.68,104.47,125.48,78.9,125.48z M78.9,35c-24.32,0-44.11,19.79-44.11,44.12
					c0,24.32,19.79,44.1,44.11,44.1c24.33,0,44.12-19.78,44.12-44.1C123.02,54.79,103.23,35,78.9,35z"/>
			</g>
		</g>
		<g>
			<g>
				<path class="st2" d="M78.9,33.86c10.78,0,19.53,20.26,19.53,45.25s-8.75,45.23-19.53,45.23c-10.78,0-19.53-20.25-19.53-45.23
					S68.11,33.86,78.9,33.86z"/>
			</g>
			<g>
				<path class="st1" d="M78.9,125.48c-11.59,0-20.66-20.37-20.66-46.37c0-26.01,9.08-46.38,20.66-46.38
					c11.59,0,20.66,20.38,20.66,46.38C99.56,105.12,90.48,125.48,78.9,125.48z M78.9,35c-9.97,0-18.4,20.2-18.4,44.12
					c0,23.91,8.43,44.1,18.4,44.1c9.97,0,18.4-20.19,18.4-44.1C97.3,55.2,88.87,35,78.9,35z"/>
			</g>
		</g>
		<g>
			<path class="st1" d="M124.15,80.25H33.66c-0.63,0-1.13-0.51-1.13-1.13c0-0.63,0.51-1.13,1.13-1.13h90.49
				c0.63,0,1.13,0.51,1.13,1.13C125.28,79.74,124.77,80.25,124.15,80.25z"/>
		</g>
		<g>
			<g>
				<path class="st3" d="M120.85,4.87c8.07,0,14.59,6.53,14.59,14.58c0,8.08-6.52,14.61-14.59,14.61c-8.06,0-14.59-6.52-14.59-14.61
					C106.26,11.4,112.79,4.87,120.85,4.87z"/>
			</g>
			<g>
				<path class="st1" d="M120.85,35.19c-8.67,0-15.73-7.06-15.73-15.74c0-8.67,7.06-15.72,15.73-15.72
					c8.67,0,15.72,7.05,15.72,15.72C136.57,28.13,129.52,35.19,120.85,35.19z M120.85,6c-7.42,0-13.46,6.03-13.46,13.45
					c0,7.43,6.04,13.47,13.46,13.47c7.42,0,13.46-6.04,13.46-13.47C134.31,12.04,128.27,6,120.85,6z"/>
			</g>
		</g>
		<g>
			<g>
				<path class="st3" d="M19.16,139.97c-7.8-2.1-12.41-10.1-10.32-17.88c2.08-7.77,10.09-12.41,17.86-10.32
					c7.8,2.08,12.41,10.09,10.32,17.87C34.94,137.44,26.94,142.05,19.16,139.97z"/>
			</g>
			<g>
				<path class="st1" d="M22.94,141.6c-1.37,0-2.74-0.18-4.07-0.54c-8.38-2.25-13.37-10.9-11.12-19.27
					c1.84-6.86,8.07-11.66,15.17-11.66c1.37,0,2.75,0.18,4.09,0.54c4.06,1.08,7.45,3.68,9.55,7.32c2.1,3.64,2.66,7.87,1.57,11.93
					C36.29,136.8,30.04,141.6,22.94,141.6z M22.92,112.4c-6.07,0-11.41,4.1-12.98,9.98c-1.93,7.17,2.34,14.57,9.52,16.5
					c1.14,0.31,2.31,0.46,3.48,0.46c6.08,0,11.42-4.11,13-9.99c0.93-3.47,0.46-7.1-1.34-10.21c-1.8-3.12-4.7-5.34-8.18-6.27
					C25.27,112.56,24.09,112.4,22.92,112.4z"/>
			</g>
		</g>
		<g>
			<g>
				<path class="st0" d="M120.64,11.96c1.76,0,3.16,1.41,3.16,3.18c0,1.75-1.41,3.16-3.16,3.16c-1.76,0-3.17-1.41-3.17-3.16
					C117.47,13.37,118.88,11.96,120.64,11.96z"/>
			</g>
			<g>
				<path class="st1" d="M120.64,19.43c-2.37,0-4.3-1.92-4.3-4.29c0-2.37,1.93-4.31,4.3-4.31c2.37,0,4.3,1.93,4.3,4.31
					C124.94,17.5,123.01,19.43,120.64,19.43z M120.64,13.09c-1.14,0-2.04,0.9-2.04,2.04c0,1.12,0.91,2.02,2.04,2.02
					c1.12,0,2.03-0.91,2.03-2.02C122.67,13.99,121.78,13.09,120.64,13.09z"/>
			</g>
		</g>
		<g>
			<g>
				<path class="st0" d="M113.31,32.68v-5.24c0-2.87,2.36-5.24,5.24-5.24h4.18c2.87,0,5.24,2.36,5.24,5.24v5.24"/>
			</g>
			<g>
				<path class="st1" d="M127.97,33.82c-0.63,0-1.13-0.51-1.13-1.13v-5.24c0-2.26-1.84-4.1-4.1-4.1h-4.18
					c-2.26,0-4.11,1.84-4.11,4.1v5.24c0,0.63-0.51,1.13-1.13,1.13c-0.63,0-1.13-0.51-1.13-1.13v-5.24c0-3.51,2.86-6.37,6.37-6.37
					h4.18c3.51,0,6.37,2.86,6.37,6.37v5.24C129.1,33.31,128.59,33.82,127.97,33.82z"/>
			</g>
		</g>
		<g>
			<g>
				<path class="st4" d="M17.29,119.91c2.95,0,8.34,0,11.3,0c0.24,0,0.44,0.16,0.44,0.39v7.16c0,0.21-0.2,0.38-0.44,0.38H22.8h-5.51
					c-0.24,0-0.44-0.17-0.44-0.38v-7.16C16.85,120.06,17.05,119.91,17.29,119.91z"/>
			</g>
			<g>
				<path class="st1" d="M28.59,128.97h-11.3c-0.87,0-1.57-0.68-1.57-1.52v-7.16c0-0.85,0.69-1.52,1.57-1.52h11.3
					c0.88,0,1.57,0.67,1.57,1.52v7.16C30.16,128.29,29.46,128.97,28.59,128.97z M17.98,126.71h9.91v-5.67h-9.91V126.71z"/>
			</g>
		</g>
		<g>
			<path class="st1" d="M25.92,134.03h-5.97c-0.63,0-1.13-0.51-1.13-1.13s0.51-1.13,1.13-1.13h5.97c0.63,0,1.13,0.51,1.13,1.13
				S26.55,134.03,25.92,134.03z"/>
		</g>
		<g>
			<path class="st1" d="M22.93,134.03c-0.62,0-1.13-0.51-1.13-1.13v-4.55c0-0.63,0.51-1.13,1.13-1.13c0.63,0,1.13,0.51,1.13,1.13
				v4.55C24.07,133.53,23.56,134.03,22.93,134.03z"/>
		</g>
		<g>
			<path class="st1" d="M78.9,54.64c-11.22,0-22.04-2.27-32.17-6.74c-0.57-0.25-0.83-0.92-0.58-1.49c0.25-0.57,0.92-0.83,1.49-0.58
				c9.84,4.34,20.36,6.55,31.26,6.55c10.9,0,21.42-2.2,31.26-6.55c0.57-0.25,1.24,0.01,1.49,0.58c0.25,0.57-0.01,1.24-0.58,1.49
				C100.94,52.37,90.12,54.64,78.9,54.64z"/>
		</g>
		<g>
			<path class="st1" d="M110.49,112.63c-0.15,0-0.31-0.03-0.45-0.1c-9.83-4.32-20.3-6.52-31.14-6.52c-10.83,0-21.31,2.19-31.14,6.52
				c-0.57,0.26-1.24-0.01-1.49-0.58c-0.25-0.57,0.01-1.24,0.58-1.49c10.12-4.45,20.9-6.71,32.05-6.71c11.15,0,21.93,2.26,32.05,6.71
				c0.57,0.25,0.83,0.92,0.58,1.49C111.34,112.37,110.92,112.63,110.49,112.63z"/>
		</g>
	</g>
</g>
</svg>
